<svg xmlns="http://www.w3.org/2000/svg" xmlns:xlink="http://www.w3.org/1999/xlink" width="102" height="127" viewBox="0 0 102 127"><defs><path id="lamua" d="M761.37 964a5.6 5.6 0 0 1 5.63 5.58v110.62a5.6 5.6 0 0 1-5.63 5.57H671.3a5.6 5.6 0 0 1-5.63-5.57v-92l21.97-24.2z"/><path id="lamud" d="M691.13 1005.01h14.07a3.47 3.47 0 0 1-.06-.66v-4.64c0-1.46.9-2.65 2-2.65h20.01c1.1 0 2 1.19 2 2.65v4.64c0 .23-.02.45-.06.66h14.07c3.32 0 6 2.67 6 5.97v35.77c0 3.29-2.68 5.96-6 5.96h-52.03c-3.31 0-6-2.67-6-5.96v-35.77c0-3.3 2.69-5.97 6-5.97zm8 23.85c0 9.88 8.07 17.89 18.02 17.89 9.94 0 18-8.01 18-17.89s-8.06-17.88-18-17.88c-9.95 0-18.01 8-18.01 17.88zm18.02-11.92c6.63 0 12 5.34 12 11.92 0 6.59-5.37 11.93-12 11.93s-12.01-5.34-12.01-11.93c0-6.58 5.38-11.92 12-11.92zm-4 11.92c0 2.2 1.79 3.98 4 3.98 2.2 0 4-1.78 4-3.98s-1.8-3.97-4-3.97c-2.21 0-4 1.78-4 3.97zm-4-25.83h16v-2h-16z"/><mask id="lamuc" width="2" height="2" x="-1" y="-1"><path fill="#fff" d="M665 964h102v122H665z"/><use xlink:href="#lamua"/></mask><filter id="lamub" width="122" height="147" x="655" y="954" filterUnits="userSpaceOnUse"><feOffset dy="5" in="SourceGraphic" result="FeOffset1030Out"/><feGaussianBlur in="FeOffset1030Out" result="FeGaussianBlur1031Out" stdDeviation="0 0"/></filter></defs><g><g transform="translate(-665 -964)"><g filter="url(#lamub)"><use fill="none" stroke-opacity=".75" stroke-width="0" mask="url(&quot;#lamuc&quot;)" xlink:href="#lamua"/><use fill="#b1220a" fill-opacity=".75" xlink:href="#lamua"/></g><use fill="#e25842" xlink:href="#lamua"/></g><g transform="translate(-665 -964)"><use fill="#fff" xlink:href="#lamud"/></g></g></svg>