<svg xmlns="http://www.w3.org/2000/svg" xmlns:xlink="http://www.w3.org/1999/xlink" width="155" height="156" viewBox="0 0 155 156"><defs><path id="psjaa" d="M698.44 1331.81a9.56 9.56 0 0 1 9.56 9.56v86.07a9.56 9.56 0 0 1-9.56 9.56H583.69a9.56 9.56 0 0 1-9.57-9.56v-4.78h114.75v-76.5h-23.9v-14.35zM564.56 1284h86.06a9.56 9.56 0 0 1 9.57 9.56v114.75a9.56 9.56 0 0 1-9.57 9.56h-86.06a9.56 9.56 0 0 1-9.56-9.56v-114.75a9.56 9.56 0 0 1 9.56-9.56zm4.78 114.75h76.5v-100.4h-76.5zm33.47 9.56a4.78 4.78 0 1 0 9.56 0 4.78 4.78 0 0 0-9.56 0zm90.85-23.9a4.78 4.78 0 1 0 9.56 0 4.78 4.78 0 0 0-9.56 0z"/><mask id="psjac" width="2" height="2" x="-1" y="-1"><path fill="#fff" d="M555 1284h153v153H555z"/><use xlink:href="#psjaa"/></mask><filter id="psjab" width="175" height="177" x="544" y="1274" filterUnits="userSpaceOnUse"><feOffset dy="2" in="SourceGraphic" result="FeOffset1105Out"/><feGaussianBlur in="FeOffset1105Out" result="FeGaussianBlur1106Out" stdDeviation="0.4 0.4"/></filter></defs><g><g transform="translate(-554 -1284)"><g filter="url(#psjab)"><use fill="none" stroke-opacity=".24" stroke-width="0" mask="url(&quot;#psjac&quot;)" xlink:href="#psjaa"/><use fill-opacity=".24" xlink:href="#psjaa"/></g><use fill="#fff" xlink:href="#psjaa"/></g></g></svg>