<svg xmlns="http://www.w3.org/2000/svg" xmlns:xlink="http://www.w3.org/1999/xlink" width="95" height="121" viewBox="0 0 95 121"><defs><path id="86rja" d="M287.72 970a5.28 5.28 0 0 1 5.28 5.28v104.68a5.28 5.28 0 0 1-5.28 5.28h-84.4a5.28 5.28 0 0 1-5.28-5.28v-87.07L218.62 970z"/><path id="86rjd" d="M272.78 1015.36v43.56l-8.43 8.33h-31.98v-8.9h-10.1v-52.06h40.54v9.07zm-12.5 34.11h-6.31l.02 6.34zm-33.85 4.7h25.93l-.03-6.34h6.31v-37.36h-32.2zm35.93 8.91l-.02-6.31h6.3v-37.25h-5.83V1050l-8.46 8.35h-17.83v4.73zm7.9-4.68h-6.29l.03 6.33zm-37.78-35.8c0-.82.66-1.48 1.47-1.48h17.15a1.47 1.47 0 0 1 0 2.95h-17.15c-.8 0-1.47-.66-1.47-1.47zm0 8.37c0-.82.66-1.48 1.47-1.48h17.15a1.47 1.47 0 0 1 0 2.95h-17.15c-.8 0-1.47-.66-1.47-1.47zm20.1 8.36c0 .82-.66 1.48-1.48 1.48h-17.15a1.47 1.47 0 0 1 0-2.95h17.15c.82 0 1.47.66 1.47 1.47z"/><mask id="86rjc" width="2" height="2" x="-1" y="-1"><path fill="#fff" d="M198 970h95v116h-95z"/><use xlink:href="#86rja"/></mask><filter id="86rjb" width="115" height="141" x="188" y="960" filterUnits="userSpaceOnUse"><feOffset dy="5" in="SourceGraphic" result="FeOffset1080Out"/><feGaussianBlur in="FeOffset1080Out" result="FeGaussianBlur1081Out" stdDeviation="0 0"/></filter></defs><g><g transform="translate(-198 -970)"><g filter="url(#86rjb)"><use fill="none" stroke-opacity=".75" stroke-width="0" mask="url(&quot;#86rjc&quot;)" xlink:href="#86rja"/><use fill="#1d4630" fill-opacity=".75" xlink:href="#86rja"/></g><use fill="#43a06d" xlink:href="#86rja"/></g><g transform="translate(-198 -970)"><use fill="#fff" xlink:href="#86rjd"/></g></g></svg>