<svg xmlns="http://www.w3.org/2000/svg" xmlns:xlink="http://www.w3.org/1999/xlink" width="274" height="230" viewBox="0 0 274 230"><defs><path id="m05da" d="M277.33 2117h181.33c15.03 0 27.2 12.2 27.2 27.24v118.04c0 3.18-.54 6.24-1.54 9.08h1.55v18.16h-27.2v-145.28H277.32v145.28h-27.2v-18.16h1.55c-1-2.84-1.55-5.9-1.55-9.08v-118.04a27.22 27.22 0 0 1 27.2-27.24zm-27.2 190.68h235.74a18.15 18.15 0 0 1 18.13 18.16c0 10.03-17.19 18.16-27.2 18.16H259.2c-10.02 0-27.2-8.13-27.2-18.16a18.15 18.15 0 0 1 18.13-18.16zm81.6 22.7c0 2.5 4.06 4.54 9.07 4.54h54.4c5 0 9.07-2.03 9.07-4.54 0-2.5-4.06-4.54-9.07-4.54h-54.4c-5 0-9.07 2.03-9.07 4.54zm-24.61-106.85l12.77-12.84a8.99 8.99 0 0 1 12.76 0l16.73 16.83 53.93-54.26a8.99 8.99 0 0 1 12.77 0l12.76 12.85a9.12 9.12 0 0 1 0 12.84l-70.2 70.62a8.99 8.99 0 0 1-11.13 1.31c-2.94.7-6.18-.1-8.48-2.4l-31.91-32.11a9.12 9.12 0 0 1 0-12.84z"/><mask id="m05dc" width="2" height="2" x="-1" y="-1"><path fill="#fff" d="M232 2117h272v227H232z"/><use xlink:href="#m05da"/></mask><filter id="m05db" width="294" height="251" x="221" y="2107" filterUnits="userSpaceOnUse"><feOffset dy="2" in="SourceGraphic" result="FeOffset1125Out"/><feGaussianBlur in="FeOffset1125Out" result="FeGaussianBlur1126Out" stdDeviation="0.4 0.4"/></filter></defs><g><g transform="translate(-231 -2117)"><g filter="url(#m05db)"><use fill="none" stroke-opacity=".24" stroke-width="0" mask="url(&quot;#m05dc&quot;)" xlink:href="#m05da"/><use fill-opacity=".24" xlink:href="#m05da"/></g><use fill="#fff" xlink:href="#m05da"/></g></g></svg>