<svg xmlns="http://www.w3.org/2000/svg" xmlns:xlink="http://www.w3.org/1999/xlink" width="66" height="67" viewBox="0 0 66 67"><defs><path id="x7qna" d="M645 3029c18.23 0 33 15.04 33 33.53 0 18.48-14.77 33.46-33 33.46-18.24 0-33-14.98-33-33.46 0-18.49 14.76-33.52 33-33.52zm14.8 20.32c-.83 0-1.63.33-2.26.97l-16.05 16.28-7.43-7.53a3.19 3.19 0 0 0-4.58 0l-2.98 3.01a3.32 3.32 0 0 0 0 4.64l9.28 9.35c.12.18.25.32.41.48l2.98 3.02c.8.8 1.9 1.1 2.91.9a3.24 3.24 0 0 0 1.67-.9l2.97-3.02 18.38-18.57a3.32 3.32 0 0 0 0-4.64l-2.98-3.02a3.3 3.3 0 0 0-2.32-.97z"/></defs><g><g transform="translate(-612 -3029)"><use fill="#43a06d" xlink:href="#x7qna"/></g></g></svg>